<svg xmlns="http://www.w3.org/2000/svg" xmlns:xlink="http://www.w3.org/1999/xlink" width="500" zoomAndPan="magnify" viewBox="0 0 375 374.999991" height="500" preserveAspectRatio="xMidYMid meet" version="1.0"><defs><clipPath id="c19b627f95"><path d="M 9 47 L 368 47 L 368 267 L 9 267 Z M 9 47 " clip-rule="nonzero"/></clipPath><clipPath id="89c555dfe7"><path d="M 35.027344 -5.886719 L 372.164062 50.980469 L 328.683594 308.742188 L -8.453125 251.871094 Z M 35.027344 -5.886719 " clip-rule="nonzero"/></clipPath><clipPath id="48d19ad521"><path d="M 35.027344 -5.886719 L 372.164062 50.980469 L 328.683594 308.742188 L -8.453125 251.871094 Z M 35.027344 -5.886719 " clip-rule="nonzero"/></clipPath><clipPath id="529988355e"><path d="M 6 65 L 365 65 L 365 286 L 6 286 Z M 6 65 " clip-rule="nonzero"/></clipPath><clipPath id="5393742f78"><path d="M 31.921875 12.519531 L 369.058594 69.386719 L 325.578125 327.148438 L -11.558594 270.277344 Z M 31.921875 12.519531 " clip-rule="nonzero"/></clipPath><clipPath id="77fddb010c"><path d="M 31.921875 12.519531 L 369.058594 69.386719 L 325.578125 327.148438 L -11.558594 270.277344 Z M 31.921875 12.519531 " clip-rule="nonzero"/></clipPath><clipPath id="731b572d62"><path d="M 3 82 L 362 82 L 362 302 L 3 302 Z M 3 82 " clip-rule="nonzero"/></clipPath><clipPath id="604234d948"><path d="M 29.074219 29.394531 L 366.210938 86.261719 L 322.734375 344.019531 L -14.402344 287.152344 Z M 29.074219 29.394531 " clip-rule="nonzero"/></clipPath><clipPath id="fe2f29a6f2"><path d="M 29.074219 29.394531 L 366.210938 86.261719 L 322.734375 344.019531 L -14.402344 287.152344 Z M 29.074219 29.394531 " clip-rule="nonzero"/></clipPath></defs><g clip-path="url(#c19b627f95)"><g clip-path="url(#89c555dfe7)"><g clip-path="url(#48d19ad521)"><path fill="#91beff" d="M 350.191406 47.449219 C 347.632812 47.097656 345.101562 47.238281 342.597656 47.871094 C 340.089844 48.507812 337.796875 49.589844 335.714844 51.117188 L 99.894531 219.042969 L 46.246094 143.542969 C 45.875 143 45.480469 142.472656 45.054688 141.96875 C 44.632812 141.460938 44.183594 140.976562 43.710938 140.515625 C 43.242188 140.054688 42.746094 139.617188 42.234375 139.207031 C 41.71875 138.792969 41.183594 138.40625 40.628906 138.050781 C 40.078125 137.691406 39.507812 137.359375 38.921875 137.058594 C 38.335938 136.753906 37.734375 136.484375 37.121094 136.242188 C 36.507812 136 35.882812 135.785156 35.25 135.605469 C 34.613281 135.425781 33.972656 135.277344 33.324219 135.160156 C 32.675781 135.046875 32.019531 134.960938 31.363281 134.910156 C 30.707031 134.859375 30.046875 134.839844 29.386719 134.855469 C 28.730469 134.871094 28.070312 134.917969 27.417969 134.996094 C 26.761719 135.078125 26.113281 135.1875 25.46875 135.332031 C 24.824219 135.476562 24.191406 135.652344 23.566406 135.859375 C 22.9375 136.070312 22.324219 136.308594 21.722656 136.578125 C 21.121094 136.84375 20.53125 137.144531 19.960938 137.472656 C 19.386719 137.796875 18.832031 138.152344 18.292969 138.535156 C 17.757812 138.917969 17.238281 139.328125 16.742188 139.761719 C 16.246094 140.195312 15.769531 140.652344 15.320312 141.136719 C 14.867188 141.617188 14.441406 142.121094 14.039062 142.644531 C 13.640625 143.167969 13.265625 143.710938 12.917969 144.269531 C 12.570312 144.832031 12.25 145.410156 11.960938 146.003906 C 11.671875 146.597656 11.410156 147.203125 11.179688 147.820312 C 10.949219 148.441406 10.753906 149.066406 10.585938 149.707031 C 10.417969 150.34375 10.28125 150.992188 10.179688 151.644531 C 10.074219 152.296875 10.003906 152.949219 9.96875 153.609375 C 9.929688 154.269531 9.925781 154.929688 9.953125 155.585938 C 9.980469 156.246094 10.039062 156.902344 10.132812 157.558594 C 10.226562 158.210938 10.351562 158.859375 10.507812 159.5 C 10.664062 160.140625 10.851562 160.773438 11.074219 161.394531 C 11.292969 162.015625 11.542969 162.625 11.824219 163.222656 C 12.105469 163.820312 12.414062 164.402344 12.753906 164.96875 C 13.089844 165.535156 13.457031 166.085938 13.851562 166.613281 L 79.015625 258.324219 C 79.394531 258.855469 79.796875 259.367188 80.222656 259.855469 C 80.648438 260.347656 81.101562 260.816406 81.574219 261.265625 C 82.046875 261.710938 82.542969 262.132812 83.058594 262.53125 C 83.570312 262.929688 84.105469 263.300781 84.65625 263.648438 C 85.207031 263.996094 85.777344 264.3125 86.359375 264.601562 C 86.941406 264.890625 87.535156 265.152344 88.144531 265.382812 C 88.753906 265.617188 89.371094 265.816406 90 265.988281 C 90.628906 266.160156 91.261719 266.296875 91.90625 266.40625 C 92.546875 266.515625 93.191406 266.589844 93.839844 266.636719 C 94.492188 266.679688 95.140625 266.695312 95.792969 266.675781 C 96.441406 266.65625 97.089844 266.605469 97.738281 266.519531 C 98.382812 266.4375 99.023438 266.324219 99.65625 266.179688 C 100.292969 266.03125 100.917969 265.855469 101.535156 265.648438 C 102.152344 265.441406 102.757812 265.203125 103.351562 264.9375 C 103.945312 264.671875 104.523438 264.375 105.089844 264.050781 C 105.652344 263.726562 106.203125 263.378906 106.734375 263 L 358.75 83.539062 C 359.570312 82.972656 360.34375 82.347656 361.070312 81.664062 C 361.796875 80.980469 362.464844 80.25 363.082031 79.464844 C 363.699219 78.683594 364.25 77.855469 364.742188 76.992188 C 365.234375 76.125 365.660156 75.226562 366.019531 74.292969 C 366.375 73.363281 366.660156 72.410156 366.875 71.4375 C 367.089844 70.464844 367.230469 69.480469 367.296875 68.488281 C 367.363281 67.492188 367.355469 66.496094 367.273438 65.503906 C 367.191406 64.511719 367.035156 63.53125 366.804688 62.558594 C 366.574219 61.589844 366.273438 60.644531 365.898438 59.71875 C 365.527344 58.792969 365.089844 57.902344 364.582031 57.042969 C 364.078125 56.1875 363.507812 55.371094 362.882812 54.597656 C 362.253906 53.824219 361.570312 53.101562 360.832031 52.433594 C 360.097656 51.761719 359.3125 51.152344 358.484375 50.597656 C 357.65625 50.046875 356.789062 49.558594 355.886719 49.136719 C 354.988281 48.714844 354.058594 48.363281 353.101562 48.078125 C 352.148438 47.796875 351.179688 47.585938 350.191406 47.449219 Z M 350.191406 47.449219 " fill-opacity="1" fill-rule="nonzero"/></g></g></g><g clip-path="url(#529988355e)"><g clip-path="url(#5393742f78)"><g clip-path="url(#77fddb010c)"><path fill="#63a3ff" d="M 347.085938 65.855469 C 344.527344 65.503906 341.996094 65.644531 339.492188 66.277344 C 336.988281 66.914062 334.691406 67.992188 332.609375 69.523438 L 96.789062 237.449219 L 43.144531 161.949219 C 42.769531 161.40625 42.375 160.878906 41.949219 160.375 C 41.527344 159.867188 41.078125 159.382812 40.609375 158.921875 C 40.136719 158.460938 39.644531 158.023438 39.128906 157.613281 C 38.613281 157.199219 38.078125 156.8125 37.523438 156.457031 C 36.972656 156.097656 36.402344 155.765625 35.816406 155.464844 C 35.230469 155.160156 34.628906 154.890625 34.015625 154.648438 C 33.402344 154.402344 32.777344 154.191406 32.144531 154.011719 C 31.511719 153.832031 30.867188 153.683594 30.21875 153.566406 C 29.570312 153.453125 28.917969 153.367188 28.257812 153.316406 C 27.601562 153.265625 26.941406 153.246094 26.285156 153.261719 C 25.625 153.277344 24.96875 153.324219 24.3125 153.402344 C 23.65625 153.480469 23.007812 153.59375 22.363281 153.738281 C 21.722656 153.882812 21.085938 154.058594 20.460938 154.265625 C 19.835938 154.476562 19.21875 154.714844 18.617188 154.980469 C 18.015625 155.25 17.425781 155.550781 16.855469 155.875 C 16.28125 156.203125 15.726562 156.558594 15.1875 156.941406 C 14.652344 157.324219 14.132812 157.734375 13.636719 158.167969 C 13.140625 158.601562 12.667969 159.058594 12.214844 159.542969 C 11.761719 160.023438 11.335938 160.527344 10.9375 161.050781 C 10.535156 161.574219 10.160156 162.117188 9.8125 162.675781 C 9.464844 163.238281 9.144531 163.816406 8.855469 164.410156 C 8.566406 165 8.304688 165.609375 8.074219 166.226562 C 7.847656 166.84375 7.648438 167.472656 7.480469 168.113281 C 7.3125 168.75 7.175781 169.398438 7.074219 170.050781 C 6.972656 170.699219 6.898438 171.355469 6.863281 172.015625 C 6.824219 172.675781 6.820312 173.335938 6.847656 173.992188 C 6.875 174.652344 6.933594 175.308594 7.027344 175.964844 C 7.121094 176.617188 7.246094 177.265625 7.402344 177.90625 C 7.558594 178.546875 7.75 179.179688 7.96875 179.800781 C 8.1875 180.421875 8.4375 181.03125 8.71875 181.628906 C 9 182.226562 9.308594 182.808594 9.648438 183.375 C 9.988281 183.941406 10.351562 184.492188 10.746094 185.019531 L 75.910156 276.730469 C 76.289062 277.261719 76.691406 277.773438 77.117188 278.261719 C 77.546875 278.753906 77.996094 279.222656 78.46875 279.671875 C 78.941406 280.117188 79.4375 280.539062 79.953125 280.9375 C 80.46875 281.335938 81 281.707031 81.550781 282.054688 C 82.105469 282.398438 82.671875 282.71875 83.253906 283.007812 C 83.835938 283.296875 84.433594 283.558594 85.039062 283.789062 C 85.648438 284.023438 86.265625 284.222656 86.894531 284.394531 C 87.523438 284.566406 88.160156 284.703125 88.800781 284.8125 C 89.441406 284.921875 90.085938 284.996094 90.738281 285.042969 C 91.386719 285.085938 92.035156 285.097656 92.6875 285.082031 C 93.335938 285.0625 93.984375 285.011719 94.632812 284.925781 C 95.277344 284.84375 95.917969 284.730469 96.550781 284.585938 C 97.1875 284.4375 97.8125 284.261719 98.429688 284.054688 C 99.046875 283.847656 99.652344 283.609375 100.246094 283.34375 C 100.839844 283.078125 101.417969 282.78125 101.984375 282.457031 C 102.550781 282.132812 103.097656 281.78125 103.628906 281.40625 L 355.644531 101.945312 C 356.464844 101.378906 357.238281 100.753906 357.964844 100.070312 C 358.691406 99.386719 359.359375 98.65625 359.976562 97.871094 C 360.59375 97.089844 361.148438 96.261719 361.640625 95.398438 C 362.132812 94.53125 362.554688 93.632812 362.914062 92.699219 C 363.269531 91.769531 363.554688 90.816406 363.769531 89.84375 C 363.984375 88.871094 364.125 87.886719 364.191406 86.890625 C 364.257812 85.898438 364.25 84.902344 364.167969 83.910156 C 364.085938 82.917969 363.929688 81.9375 363.699219 80.964844 C 363.46875 79.996094 363.167969 79.050781 362.796875 78.125 C 362.421875 77.199219 361.984375 76.308594 361.476562 75.449219 C 360.972656 74.59375 360.40625 73.777344 359.777344 73.003906 C 359.148438 72.230469 358.464844 71.507812 357.726562 70.839844 C 356.992188 70.167969 356.207031 69.558594 355.378906 69.003906 C 354.550781 68.453125 353.6875 67.964844 352.785156 67.542969 C 351.882812 67.121094 350.953125 66.769531 350 66.484375 C 349.042969 66.203125 348.074219 65.992188 347.085938 65.855469 Z M 347.085938 65.855469 " fill-opacity="1" fill-rule="nonzero"/></g></g></g><g clip-path="url(#731b572d62)"><g clip-path="url(#604234d948)"><g clip-path="url(#fe2f29a6f2)"><path fill="#2c7ef4" d="M 344.238281 82.730469 C 341.679688 82.378906 339.148438 82.519531 336.644531 83.152344 C 334.140625 83.785156 331.847656 84.867188 329.761719 86.398438 L 93.941406 254.324219 L 40.296875 178.824219 C 39.925781 178.28125 39.527344 177.753906 39.105469 177.246094 C 38.679688 176.742188 38.234375 176.257812 37.761719 175.796875 C 37.289062 175.335938 36.796875 174.898438 36.28125 174.488281 C 35.765625 174.074219 35.230469 173.6875 34.679688 173.328125 C 34.125 172.972656 33.554688 172.640625 32.96875 172.339844 C 32.382812 172.035156 31.78125 171.761719 31.167969 171.519531 C 30.554688 171.277344 29.933594 171.066406 29.296875 170.886719 C 28.664062 170.707031 28.023438 170.558594 27.371094 170.441406 C 26.722656 170.324219 26.070312 170.242188 25.414062 170.191406 C 24.753906 170.140625 24.097656 170.121094 23.4375 170.136719 C 22.777344 170.148438 22.121094 170.195312 21.464844 170.277344 C 20.8125 170.355469 20.160156 170.46875 19.519531 170.613281 C 18.875 170.757812 18.238281 170.933594 17.613281 171.140625 C 16.988281 171.347656 16.375 171.589844 15.769531 171.855469 C 15.167969 172.125 14.582031 172.425781 14.007812 172.75 C 13.433594 173.078125 12.878906 173.433594 12.34375 173.816406 C 11.804688 174.199219 11.289062 174.609375 10.789062 175.042969 C 10.292969 175.476562 9.820312 175.933594 9.367188 176.414062 C 8.917969 176.898438 8.492188 177.398438 8.089844 177.925781 C 7.6875 178.449219 7.3125 178.992188 6.964844 179.550781 C 6.617188 180.113281 6.300781 180.691406 6.007812 181.285156 C 5.71875 181.875 5.460938 182.480469 5.230469 183.101562 C 5 183.71875 4.800781 184.347656 4.632812 184.988281 C 4.464844 185.625 4.332031 186.269531 4.226562 186.921875 C 4.125 187.574219 4.054688 188.230469 4.015625 188.890625 C 3.976562 189.550781 3.972656 190.207031 4 190.867188 C 4.027344 191.527344 4.089844 192.183594 4.179688 192.839844 C 4.273438 193.492188 4.398438 194.140625 4.554688 194.78125 C 4.714844 195.421875 4.902344 196.054688 5.121094 196.675781 C 5.339844 197.296875 5.59375 197.90625 5.871094 198.503906 C 6.152344 199.101562 6.464844 199.683594 6.800781 200.25 C 7.140625 200.816406 7.507812 201.363281 7.898438 201.894531 L 73.0625 293.605469 C 73.441406 294.136719 73.84375 294.644531 74.269531 295.136719 C 74.699219 295.628906 75.148438 296.097656 75.621094 296.542969 C 76.097656 296.992188 76.589844 297.414062 77.105469 297.8125 C 77.621094 298.210938 78.152344 298.582031 78.707031 298.929688 C 79.257812 299.273438 79.824219 299.59375 80.40625 299.882812 C 80.988281 300.171875 81.585938 300.433594 82.195312 300.664062 C 82.800781 300.898438 83.421875 301.097656 84.046875 301.269531 C 84.675781 301.4375 85.3125 301.578125 85.953125 301.6875 C 86.59375 301.796875 87.242188 301.871094 87.890625 301.917969 C 88.539062 301.960938 89.191406 301.972656 89.839844 301.953125 C 90.492188 301.9375 91.140625 301.886719 91.785156 301.800781 C 92.429688 301.71875 93.070312 301.605469 93.707031 301.460938 C 94.339844 301.3125 94.964844 301.136719 95.582031 300.929688 C 96.199219 300.722656 96.804688 300.484375 97.398438 300.21875 C 97.992188 299.953125 98.574219 299.65625 99.136719 299.332031 C 99.703125 299.007812 100.25 298.65625 100.78125 298.28125 L 352.800781 118.820312 C 353.621094 118.253906 354.390625 117.628906 355.117188 116.945312 C 355.84375 116.261719 356.515625 115.53125 357.128906 114.746094 C 357.746094 113.964844 358.300781 113.136719 358.792969 112.269531 C 359.285156 111.40625 359.710938 110.503906 360.066406 109.574219 C 360.425781 108.644531 360.710938 107.691406 360.925781 106.71875 C 361.136719 105.746094 361.277344 104.761719 361.34375 103.765625 C 361.410156 102.773438 361.402344 101.777344 361.320312 100.785156 C 361.238281 99.792969 361.082031 98.808594 360.851562 97.839844 C 360.621094 96.871094 360.320312 95.921875 359.949219 95 C 359.578125 94.074219 359.136719 93.183594 358.632812 92.324219 C 358.125 91.464844 357.558594 90.652344 356.929688 89.878906 C 356.300781 89.105469 355.617188 88.382812 354.882812 87.714844 C 354.144531 87.042969 353.363281 86.433594 352.53125 85.878906 C 351.703125 85.328125 350.839844 84.839844 349.9375 84.417969 C 349.035156 83.996094 348.105469 83.644531 347.152344 83.359375 C 346.195312 83.078125 345.226562 82.867188 344.238281 82.730469 Z M 344.238281 82.730469 " fill-opacity="1" fill-rule="nonzero"/></g></g></g></svg>